# MagicaVoxel @ Ephtracy

# group
o 

# material
mtllib arrow_4d.mtl
usemtl palette

# normals
vn -1 0 0
vn 1 0 0
vn 0 0 1
vn 0 0 -1
vn 0 -1 0
vn 0 1 0

# texcoords
vt 0.208984 0.5
vt 0.623047 0.5
vt 0.794922 0.5
vt 0.974609 0.5

# verts
v -0.5 0.3 1.5
v -0.5 0.3 1.4
v -0.5 0.4 1.5
v -0.5 0.4 1.4
v 1.1 0.2 1.5
v 1.1 0.2 1.4
v 1.1 0.3 1.6
v 1.1 0.3 1.5
v 1.1 0.3 1.4
v 1.1 0.3 1.3
v 1.1 0.4 1.6
v 1.1 0.4 1.5
v 1.1 0.4 1.4
v 1.1 0.4 1.3
v 1.1 0.5 1.5
v 1.1 0.5 1.4
v 1.3 0.2 1.5
v 1.3 0.2 1.4
v 1.3 0.3 1.6
v 1.3 0.3 1.5
v 1.3 0.3 1.4
v 1.3 0.3 1.3
v 1.3 0.4 1.6
v 1.3 0.4 1.5
v 1.3 0.4 1.4
v 1.3 0.4 1.3
v 1.3 0.5 1.5
v 1.3 0.5 1.4
v 1.4 0.3 1.5
v 1.4 0.3 1.4
v 1.4 0.4 1.5
v 1.4 0.4 1.4
v 1.1 0.3 1.6
v 1.1 0.4 1.6
v 1.3 0.3 1.6
v 1.3 0.4 1.6
v -0.5 0.3 1.5
v -0.5 0.4 1.5
v -0.2 0.3 1.5
v -0.2 0.4 1.5
v 1.1 0.2 1.5
v 1.1 0.3 1.5
v 1.1 0.4 1.5
v 1.1 0.5 1.5
v 1.3 0.2 1.5
v 1.3 0.3 1.5
v 1.3 0.4 1.5
v 1.3 0.5 1.5
v 1.4 0.3 1.5
v 1.4 0.4 1.5
v -0.5 0.3 1.4
v -0.5 0.4 1.4
v -0.2 0.3 1.4
v -0.2 0.4 1.4
v 1.1 0.2 1.4
v 1.1 0.3 1.4
v 1.1 0.4 1.4
v 1.1 0.5 1.4
v 1.3 0.2 1.4
v 1.3 0.3 1.4
v 1.3 0.4 1.4
v 1.3 0.5 1.4
v 1.4 0.3 1.4
v 1.4 0.4 1.4
v 1.1 0.3 1.3
v 1.1 0.4 1.3
v 1.3 0.3 1.3
v 1.3 0.4 1.3
v 1.1 0.2 1.5
v 1.3 0.2 1.5
v 1.1 0.2 1.4
v 1.3 0.2 1.4
v 1.1 0.3 1.6
v 1.3 0.3 1.6
v -0.5 0.3 1.5
v -0.2 0.3 1.5
v 1.1 0.3 1.5
v 1.3 0.3 1.5
v 1.4 0.3 1.5
v -0.5 0.3 1.4
v -0.2 0.3 1.4
v 1.1 0.3 1.4
v 1.3 0.3 1.4
v 1.4 0.3 1.4
v 1.1 0.3 1.3
v 1.3 0.3 1.3
v 1.1 0.4 1.6
v 1.3 0.4 1.6
v -0.5 0.4 1.5
v -0.2 0.4 1.5
v 1.1 0.4 1.5
v 1.3 0.4 1.5
v 1.4 0.4 1.5
v -0.5 0.4 1.4
v -0.2 0.4 1.4
v 1.1 0.4 1.4
v 1.3 0.4 1.4
v 1.4 0.4 1.4
v 1.1 0.4 1.3
v 1.3 0.4 1.3
v 1.1 0.5 1.5
v 1.3 0.5 1.5
v 1.1 0.5 1.4
v 1.3 0.5 1.4

# faces
f 3/4/1 2/4/1 1/4/1
f 4/4/1 2/4/1 3/4/1
f 8/3/1 6/3/1 5/3/1
f 9/3/1 6/3/1 8/3/1
f 11/3/1 8/3/1 7/3/1
f 12/3/1 8/3/1 11/3/1
f 13/2/1 10/2/1 9/2/1
f 14/2/1 10/2/1 13/2/1
f 15/2/1 13/2/1 12/2/1
f 16/2/1 13/2/1 15/2/1
f 17/3/2 18/3/2 20/3/2
f 20/3/2 18/3/2 21/3/2
f 19/3/2 20/3/2 23/3/2
f 23/3/2 20/3/2 24/3/2
f 21/2/2 22/2/2 25/2/2
f 25/2/2 22/2/2 26/2/2
f 24/2/2 25/2/2 27/2/2
f 27/2/2 25/2/2 28/2/2
f 29/2/2 30/2/2 31/2/2
f 31/2/2 30/2/2 32/2/2
f 35/3/3 34/3/3 33/3/3
f 36/3/3 34/3/3 35/3/3
f 39/4/3 38/4/3 37/4/3
f 40/4/3 38/4/3 39/4/3
f 42/1/3 40/1/3 39/1/3
f 43/1/3 40/1/3 42/1/3
f 45/3/3 42/3/3 41/3/3
f 46/3/3 42/3/3 45/3/3
f 47/2/3 44/2/3 43/2/3
f 48/2/3 44/2/3 47/2/3
f 49/2/3 47/2/3 46/2/3
f 50/2/3 47/2/3 49/2/3
f 51/4/4 52/4/4 53/4/4
f 53/4/4 52/4/4 54/4/4
f 53/1/4 54/1/4 56/1/4
f 56/1/4 54/1/4 57/1/4
f 55/3/4 56/3/4 59/3/4
f 59/3/4 56/3/4 60/3/4
f 57/2/4 58/2/4 61/2/4
f 61/2/4 58/2/4 62/2/4
f 60/2/4 61/2/4 63/2/4
f 63/2/4 61/2/4 64/2/4
f 65/2/4 66/2/4 67/2/4
f 67/2/4 66/2/4 68/2/4
f 71/3/5 70/3/5 69/3/5
f 72/3/5 70/3/5 71/3/5
f 77/3/5 74/3/5 73/3/5
f 78/3/5 74/3/5 77/3/5
f 80/4/5 76/4/5 75/4/5
f 81/1/5 77/1/5 76/1/5
f 81/4/5 76/4/5 80/4/5
f 82/1/5 77/1/5 81/1/5
f 83/2/5 79/2/5 78/2/5
f 84/2/5 79/2/5 83/2/5
f 85/2/5 83/2/5 82/2/5
f 86/2/5 83/2/5 85/2/5
f 87/3/6 88/3/6 91/3/6
f 91/3/6 88/3/6 92/3/6
f 89/4/6 90/4/6 94/4/6
f 90/1/6 91/1/6 95/1/6
f 94/4/6 90/4/6 95/4/6
f 95/1/6 91/1/6 96/1/6
f 92/2/6 93/2/6 97/2/6
f 97/2/6 93/2/6 98/2/6
f 96/2/6 97/2/6 99/2/6
f 99/2/6 97/2/6 100/2/6
f 101/2/6 102/2/6 103/2/6
f 103/2/6 102/2/6 104/2/6
