# MagicaVoxel @ Ephtracy

# group
o 

# material
mtllib hongoAmarillo.mtl
usemtl palette

# normals
vn -1 0 0
vn 1 0 0
vn 0 0 1
vn 0 0 -1
vn 0 -1 0
vn 0 1 0

# texcoords
vt 0.146484 0.5
vt 0.431641 0.5
vt 0.482422 0.5

# verts
v -0.4 0.5 0.4
v -0.4 0.5 -0.3
v -0.4 0.6 0.4
v -0.4 0.6 -0.3
v -0.3 0.4 0.3
v -0.3 0.4 -0.2
v -0.3 0.5 0.3
v -0.3 0.5 -0.2
v -0.1 0 0.1
v -0.1 0 0
v -0.1 0.4 0.1
v -0.1 0.4 0
v 0 0 0.1
v 0 0 0
v 0 0.4 0.1
v 0 0.4 0
v 0.2 0.4 0.3
v 0.2 0.4 -0.2
v 0.2 0.5 0.3
v 0.2 0.5 -0.2
v 0.3 0.5 0.4
v 0.3 0.5 -0.3
v 0.3 0.6 0.4
v 0.3 0.6 -0.3
v -0.4 0.5 0.4
v -0.4 0.6 0.4
v 0.3 0.5 0.4
v 0.3 0.6 0.4
v -0.3 0.4 0.3
v -0.3 0.5 0.3
v 0.2 0.4 0.3
v 0.2 0.5 0.3
v -0.1 0 0.1
v -0.1 0.4 0.1
v 0 0 0.1
v 0 0.4 0.1
v -0.1 0 0
v -0.1 0.4 0
v 0 0 0
v 0 0.4 0
v -0.3 0.4 -0.2
v -0.3 0.5 -0.2
v 0.2 0.4 -0.2
v 0.2 0.5 -0.2
v -0.4 0.5 -0.3
v -0.4 0.6 -0.3
v 0.3 0.5 -0.3
v 0.3 0.6 -0.3
v -0.1 0 0.1
v 0 0 0.1
v -0.1 0 0
v 0 0 0
v -0.3 0.4 0.3
v 0.2 0.4 0.3
v -0.1 0.4 0.1
v 0 0.4 0.1
v -0.1 0.4 0
v 0 0.4 0
v -0.3 0.4 -0.2
v 0.2 0.4 -0.2
v -0.4 0.5 0.4
v 0.3 0.5 0.4
v -0.3 0.5 0.3
v 0.2 0.5 0.3
v -0.3 0.5 -0.2
v 0.2 0.5 -0.2
v -0.4 0.5 -0.3
v 0.3 0.5 -0.3
v -0.4 0.6 0.4
v 0.3 0.6 0.4
v -0.3 0.6 0.3
v -0.2 0.6 0.3
v 0 0.6 0.3
v 0.1 0.6 0.3
v -0.3 0.6 0.2
v -0.2 0.6 0.2
v 0 0.6 0.2
v 0.1 0.6 0.2
v -0.1 0.6 0.1
v 0 0.6 0.1
v 0.1 0.6 0.1
v 0.2 0.6 0.1
v -0.3 0.6 0
v -0.2 0.6 0
v -0.1 0.6 0
v 0 0.6 0
v 0.1 0.6 0
v 0.2 0.6 0
v -0.3 0.6 -0.1
v -0.2 0.6 -0.1
v -0.1 0.6 -0.1
v 0 0.6 -0.1
v 0.1 0.6 -0.1
v 0.2 0.6 -0.1
v -0.1 0.6 -0.2
v 0 0.6 -0.2
v 0.1 0.6 -0.2
v 0.2 0.6 -0.2
v -0.4 0.6 -0.3
v 0.3 0.6 -0.3

# faces
f 3/3/1 2/3/1 1/3/1
f 4/3/1 2/3/1 3/3/1
f 7/2/1 6/2/1 5/2/1
f 8/2/1 6/2/1 7/2/1
f 11/2/1 10/2/1 9/2/1
f 12/2/1 10/2/1 11/2/1
f 13/2/2 14/2/2 15/2/2
f 15/2/2 14/2/2 16/2/2
f 17/2/2 18/2/2 19/2/2
f 19/2/2 18/2/2 20/2/2
f 21/3/2 22/3/2 23/3/2
f 23/3/2 22/3/2 24/3/2
f 27/3/3 26/3/3 25/3/3
f 28/3/3 26/3/3 27/3/3
f 31/2/3 30/2/3 29/2/3
f 32/2/3 30/2/3 31/2/3
f 35/2/3 34/2/3 33/2/3
f 36/2/3 34/2/3 35/2/3
f 37/2/4 38/2/4 39/2/4
f 39/2/4 38/2/4 40/2/4
f 41/2/4 42/2/4 43/2/4
f 43/2/4 42/2/4 44/2/4
f 45/3/4 46/3/4 47/3/4
f 47/3/4 46/3/4 48/3/4
f 51/2/5 50/2/5 49/2/5
f 52/2/5 50/2/5 51/2/5
f 55/2/5 54/2/5 53/2/5
f 56/2/5 54/2/5 55/2/5
f 57/2/5 55/2/5 53/2/5
f 58/2/5 54/2/5 56/2/5
f 59/2/5 57/2/5 53/2/5
f 59/2/5 58/2/5 57/2/5
f 60/2/5 54/2/5 58/2/5
f 60/2/5 58/2/5 59/2/5
f 63/3/5 62/3/5 61/3/5
f 64/3/5 62/3/5 63/3/5
f 65/3/5 63/3/5 61/3/5
f 66/3/5 62/3/5 64/3/5
f 67/3/5 65/3/5 61/3/5
f 67/3/5 66/3/5 65/3/5
f 68/3/5 62/3/5 66/3/5
f 68/3/5 66/3/5 67/3/5
f 69/3/6 70/3/6 71/3/6
f 71/3/6 70/3/6 72/3/6
f 72/3/6 70/3/6 73/3/6
f 73/3/6 70/3/6 74/3/6
f 69/3/6 71/3/6 75/3/6
f 71/1/6 72/1/6 75/1/6
f 72/3/6 73/3/6 76/3/6
f 75/1/6 72/1/6 76/1/6
f 73/1/6 74/1/6 77/1/6
f 76/3/6 73/3/6 77/3/6
f 74/3/6 70/3/6 78/3/6
f 77/1/6 74/1/6 78/1/6
f 76/3/6 77/3/6 79/3/6
f 75/3/6 76/3/6 79/3/6
f 77/3/6 78/3/6 79/3/6
f 79/3/6 78/3/6 80/3/6
f 78/3/6 70/3/6 81/3/6
f 80/3/6 78/3/6 81/3/6
f 81/3/6 70/3/6 82/3/6
f 69/3/6 75/3/6 83/3/6
f 75/3/6 79/3/6 83/3/6
f 83/3/6 79/3/6 84/3/6
f 79/1/6 80/1/6 85/1/6
f 84/3/6 79/3/6 85/3/6
f 80/3/6 81/3/6 86/3/6
f 85/1/6 80/1/6 86/1/6
f 81/1/6 82/1/6 87/1/6
f 86/3/6 81/3/6 87/3/6
f 82/3/6 70/3/6 88/3/6
f 87/1/6 82/1/6 88/1/6
f 83/1/6 84/1/6 89/1/6
f 69/3/6 83/3/6 89/3/6
f 86/3/6 87/3/6 90/3/6
f 89/1/6 84/1/6 90/1/6
f 85/3/6 86/3/6 90/3/6
f 87/3/6 88/3/6 90/3/6
f 84/3/6 85/3/6 90/3/6
f 90/3/6 88/3/6 91/3/6
f 91/3/6 88/3/6 92/3/6
f 92/3/6 88/3/6 93/3/6
f 88/3/6 70/3/6 94/3/6
f 93/3/6 88/3/6 94/3/6
f 89/3/6 90/3/6 95/3/6
f 90/3/6 91/3/6 95/3/6
f 91/1/6 92/1/6 95/1/6
f 92/3/6 93/3/6 96/3/6
f 95/1/6 92/1/6 96/1/6
f 93/1/6 94/1/6 97/1/6
f 96/3/6 93/3/6 97/3/6
f 94/3/6 70/3/6 98/3/6
f 97/1/6 94/1/6 98/1/6
f 89/3/6 95/3/6 99/3/6
f 69/3/6 89/3/6 99/3/6
f 97/3/6 98/3/6 99/3/6
f 95/3/6 96/3/6 99/3/6
f 96/3/6 97/3/6 99/3/6
f 98/3/6 70/3/6 100/3/6
f 99/3/6 98/3/6 100/3/6
