# MagicaVoxel @ Ephtracy

# group
o 

# material
mtllib pasto2.mtl
usemtl palette

# normals
vn -1 0 0
vn 1 0 0
vn 0 0 1
vn 0 0 -1
vn 0 -1 0
vn 0 1 0

# texcoords
vt 0.583984 0.5
vt 0.591797 0.5

# verts
v -0.3 0 -0.1
v -0.3 0 -0.2
v -0.3 0.2 -0.1
v -0.3 0.2 -0.2
v -0.2 0 0.2
v -0.2 0 0.1
v -0.2 0.2 0.2
v -0.2 0.2 0.1
v -0.1 0 0.3
v -0.1 0 0.2
v -0.1 0 0
v -0.1 0 -0.1
v -0.1 0.2 0.2
v -0.1 0.2 0
v -0.1 0.2 -0.1
v -0.1 0.3 0.3
v -0.1 0.3 0.2
v 0.1 0 0.2
v 0.1 0 0.1
v 0.1 0 -0.1
v 0.1 0 -0.2
v 0.1 0.1 -0.1
v 0.1 0.1 -0.2
v 0.1 0.4 0.2
v 0.1 0.4 0.1
v -0.2 0 -0.1
v -0.2 0 -0.2
v -0.2 0.2 -0.1
v -0.2 0.2 -0.2
v -0.1 0 0.2
v -0.1 0 0.1
v -0.1 0.2 0.2
v -0.1 0.2 0.1
v 0 0 0.3
v 0 0 0.2
v 0 0 0
v 0 0 -0.1
v 0 0.2 0
v 0 0.2 -0.1
v 0 0.3 0.3
v 0 0.3 0.2
v 0.2 0 0.2
v 0.2 0 0.1
v 0.2 0 -0.1
v 0.2 0 -0.2
v 0.2 0.1 -0.1
v 0.2 0.1 -0.2
v 0.2 0.4 0.2
v 0.2 0.4 0.1
v -0.1 0 0.3
v -0.1 0.3 0.3
v 0 0 0.3
v 0 0.3 0.3
v -0.2 0 0.2
v -0.2 0.2 0.2
v -0.1 0 0.2
v -0.1 0.2 0.2
v 0.1 0 0.2
v 0.1 0.4 0.2
v 0.2 0 0.2
v 0.2 0.4 0.2
v -0.1 0 0
v -0.1 0.2 0
v 0 0 0
v 0 0.2 0
v -0.3 0 -0.1
v -0.3 0.2 -0.1
v -0.2 0 -0.1
v -0.2 0.2 -0.1
v 0.1 0 -0.1
v 0.1 0.1 -0.1
v 0.2 0 -0.1
v 0.2 0.1 -0.1
v -0.1 0 0.2
v -0.1 0.2 0.2
v -0.1 0.3 0.2
v 0 0 0.2
v 0 0.3 0.2
v -0.2 0 0.1
v -0.2 0.2 0.1
v -0.1 0 0.1
v -0.1 0.2 0.1
v 0.1 0 0.1
v 0.1 0.4 0.1
v 0.2 0 0.1
v 0.2 0.4 0.1
v -0.1 0 -0.1
v -0.1 0.2 -0.1
v 0 0 -0.1
v 0 0.2 -0.1
v -0.3 0 -0.2
v -0.3 0.2 -0.2
v -0.2 0 -0.2
v -0.2 0.2 -0.2
v 0.1 0 -0.2
v 0.1 0.1 -0.2
v 0.2 0 -0.2
v 0.2 0.1 -0.2
v -0.1 0 0.3
v 0 0 0.3
v -0.2 0 0.2
v -0.1 0 0.2
v 0 0 0.2
v 0.1 0 0.2
v 0.2 0 0.2
v -0.2 0 0.1
v -0.1 0 0.1
v 0.1 0 0.1
v 0.2 0 0.1
v -0.1 0 0
v 0 0 0
v -0.3 0 -0.1
v -0.2 0 -0.1
v -0.1 0 -0.1
v 0 0 -0.1
v 0.1 0 -0.1
v 0.2 0 -0.1
v -0.3 0 -0.2
v -0.2 0 -0.2
v 0.1 0 -0.2
v 0.2 0 -0.2
v 0.1 0.1 -0.1
v 0.2 0.1 -0.1
v 0.1 0.1 -0.2
v 0.2 0.1 -0.2
v -0.2 0.2 0.2
v -0.1 0.2 0.2
v -0.2 0.2 0.1
v -0.1 0.2 0.1
v -0.1 0.2 0
v 0 0.2 0
v -0.3 0.2 -0.1
v -0.2 0.2 -0.1
v -0.1 0.2 -0.1
v 0 0.2 -0.1
v -0.3 0.2 -0.2
v -0.2 0.2 -0.2
v -0.1 0.3 0.3
v 0 0.3 0.3
v -0.1 0.3 0.2
v 0 0.3 0.2
v 0.1 0.4 0.2
v 0.2 0.4 0.2
v 0.1 0.4 0.1
v 0.2 0.4 0.1

# faces
f 3/1/1 2/1/1 1/1/1
f 4/1/1 2/1/1 3/1/1
f 7/2/1 6/2/1 5/2/1
f 8/2/1 6/2/1 7/2/1
f 13/1/1 10/1/1 9/1/1
f 14/1/1 12/1/1 11/1/1
f 15/1/1 12/1/1 14/1/1
f 16/1/1 13/1/1 9/1/1
f 17/1/1 13/1/1 16/1/1
f 22/1/1 21/1/1 20/1/1
f 23/1/1 21/1/1 22/1/1
f 24/2/1 19/2/1 18/2/1
f 25/2/1 19/2/1 24/2/1
f 26/1/2 27/1/2 28/1/2
f 28/1/2 27/1/2 29/1/2
f 30/2/2 31/2/2 32/2/2
f 32/2/2 31/2/2 33/2/2
f 36/1/2 37/1/2 38/1/2
f 38/1/2 37/1/2 39/1/2
f 34/1/2 35/1/2 40/1/2
f 40/1/2 35/1/2 41/1/2
f 44/1/2 45/1/2 46/1/2
f 46/1/2 45/1/2 47/1/2
f 42/2/2 43/2/2 48/2/2
f 48/2/2 43/2/2 49/2/2
f 52/1/3 51/1/3 50/1/3
f 53/1/3 51/1/3 52/1/3
f 56/2/3 55/2/3 54/2/3
f 57/2/3 55/2/3 56/2/3
f 60/2/3 59/2/3 58/2/3
f 61/2/3 59/2/3 60/2/3
f 64/1/3 63/1/3 62/1/3
f 65/1/3 63/1/3 64/1/3
f 68/1/3 67/1/3 66/1/3
f 69/1/3 67/1/3 68/1/3
f 72/1/3 71/1/3 70/1/3
f 73/1/3 71/1/3 72/1/3
f 74/1/4 75/1/4 77/1/4
f 75/1/4 76/1/4 77/1/4
f 77/1/4 76/1/4 78/1/4
f 79/2/4 80/2/4 81/2/4
f 81/2/4 80/2/4 82/2/4
f 83/2/4 84/2/4 85/2/4
f 85/2/4 84/2/4 86/2/4
f 87/1/4 88/1/4 89/1/4
f 89/1/4 88/1/4 90/1/4
f 91/1/4 92/1/4 93/1/4
f 93/1/4 92/1/4 94/1/4
f 95/1/4 96/1/4 97/1/4
f 97/1/4 96/1/4 98/1/4
f 102/1/5 100/1/5 99/1/5
f 103/1/5 100/1/5 102/1/5
f 106/2/5 102/2/5 101/2/5
f 107/2/5 102/2/5 106/2/5
f 108/2/5 105/2/5 104/2/5
f 109/2/5 105/2/5 108/2/5
f 114/1/5 111/1/5 110/1/5
f 115/1/5 111/1/5 114/1/5
f 118/1/5 113/1/5 112/1/5
f 119/1/5 113/1/5 118/1/5
f 120/1/5 117/1/5 116/1/5
f 121/1/5 117/1/5 120/1/5
f 122/1/6 123/1/6 124/1/6
f 124/1/6 123/1/6 125/1/6
f 126/2/6 127/2/6 128/2/6
f 128/2/6 127/2/6 129/2/6
f 130/1/6 131/1/6 134/1/6
f 134/1/6 131/1/6 135/1/6
f 132/1/6 133/1/6 136/1/6
f 136/1/6 133/1/6 137/1/6
f 138/1/6 139/1/6 140/1/6
f 140/1/6 139/1/6 141/1/6
f 142/2/6 143/2/6 144/2/6
f 144/2/6 143/2/6 145/2/6
