# MagicaVoxel @ Ephtracy

# group
o 

# material
mtllib macuahuitl.mtl
usemtl palette

# normals
vn -1 0 0
vn 1 0 0
vn 0 0 1
vn 0 0 -1
vn 0 -1 0
vn 0 1 0

# texcoords
vt 0.310547 0.5
vt 0.337891 0.5
vt 0.341797 0.5
vt 0.634766 0.5
vt 0.759766 0.5

# verts
v -0.5 0 0.2
v -0.5 0 -0.1
v -0.5 0.1 0.2
v -0.5 0.1 -0.1
v -0.1 0 0.2
v -0.1 0 0.1
v -0.1 0 2.98023e-008
v -0.1 0 -0.1
v -0.1 0.1 0.2
v -0.1 0.1 0.1
v -0.1 0.1 2.98023e-008
v -0.1 0.1 -0.1
v -5.96046e-008 0 0.3
v -5.96046e-008 0 0.2
v -5.96046e-008 0 -0.1
v -5.96046e-008 0 -0.2
v -5.96046e-008 0.1 0.3
v -5.96046e-008 0.1 0.2
v -5.96046e-008 0.1 -0.1
v -5.96046e-008 0.1 -0.2
v 0.2 0 0.3
v 0.2 0 0.2
v 0.2 0 -0.1
v 0.2 0 -0.2
v 0.2 0.1 0.3
v 0.2 0.1 0.2
v 0.2 0.1 -0.1
v 0.2 0.1 -0.2
v 0.4 0 0.3
v 0.4 0 0.2
v 0.4 0 -0.1
v 0.4 0 -0.2
v 0.4 0.1 0.3
v 0.4 0.1 0.2
v 0.4 0.1 -0.1
v 0.4 0.1 -0.2
v 0.6 0 0.3
v 0.6 0 0.2
v 0.6 0 -0.1
v 0.6 0 -0.2
v 0.6 0.1 0.3
v 0.6 0.1 0.2
v 0.6 0.1 -0.1
v 0.6 0.1 -0.2
v -0.4 0 0.2
v -0.4 0 0.1
v -0.4 0 2.98023e-008
v -0.4 0 -0.1
v -0.4 0.1 0.2
v -0.4 0.1 0.1
v -0.4 0.1 2.98023e-008
v -0.4 0.1 -0.1
v 0.0999999 0 0.3
v 0.0999999 0 0.2
v 0.0999999 0 -0.1
v 0.0999999 0 -0.2
v 0.0999999 0.1 0.3
v 0.0999999 0.1 0.2
v 0.0999999 0.1 -0.1
v 0.0999999 0.1 -0.2
v 0.3 0 0.3
v 0.3 0 0.2
v 0.3 0 -0.1
v 0.3 0 -0.2
v 0.3 0.1 0.3
v 0.3 0.1 0.2
v 0.3 0.1 -0.1
v 0.3 0.1 -0.2
v 0.5 0 0.3
v 0.5 0 0.2
v 0.5 0 -0.1
v 0.5 0 -0.2
v 0.5 0.1 0.3
v 0.5 0.1 0.2
v 0.5 0.1 -0.1
v 0.5 0.1 -0.2
v 0.7 0 0.3
v 0.7 0 0.2
v 0.7 0 -0.1
v 0.7 0 -0.2
v 0.7 0.1 0.3
v 0.7 0.1 0.2
v 0.7 0.1 -0.1
v 0.7 0.1 -0.2
v 0.8 0 0.2
v 0.8 0 0.1
v 0.8 0 2.98023e-008
v 0.8 0 -0.1
v 0.8 0.1 0.2
v 0.8 0.1 0.1
v 0.8 0.1 2.98023e-008
v 0.8 0.1 -0.1
v -5.96046e-008 0 0.3
v -5.96046e-008 0.1 0.3
v 0.0999999 0 0.3
v 0.0999999 0.1 0.3
v 0.2 0 0.3
v 0.2 0.1 0.3
v 0.3 0 0.3
v 0.3 0.1 0.3
v 0.4 0 0.3
v 0.4 0.1 0.3
v 0.5 0 0.3
v 0.5 0.1 0.3
v 0.6 0 0.3
v 0.6 0.1 0.3
v 0.7 0 0.3
v 0.7 0.1 0.3
v -0.5 0 0.2
v -0.5 0.1 0.2
v -0.4 0 0.2
v -0.4 0.1 0.2
v -0.1 0 0.2
v -0.1 0.1 0.2
v -5.96046e-008 0 0.2
v -5.96046e-008 0.1 0.2
v 0.0999999 0 0.2
v 0.0999999 0.1 0.2
v 0.2 0 0.2
v 0.2 0.1 0.2
v 0.3 0 0.2
v 0.3 0.1 0.2
v 0.4 0 0.2
v 0.4 0.1 0.2
v 0.5 0 0.2
v 0.5 0.1 0.2
v 0.6 0 0.2
v 0.6 0.1 0.2
v 0.7 0 0.2
v 0.7 0.1 0.2
v 0.8 0 0.2
v 0.8 0.1 0.2
v -0.4 0 0.1
v -0.4 0.1 0.1
v -0.1 0 0.1
v -0.1 0.1 0.1
v -0.4 0 2.98023e-008
v -0.4 0.1 2.98023e-008
v -0.1 0 2.98023e-008
v -0.1 0.1 2.98023e-008
v -0.5 0 -0.1
v -0.5 0.1 -0.1
v -0.4 0 -0.1
v -0.4 0.1 -0.1
v -0.1 0 -0.1
v -0.1 0.1 -0.1
v -5.96046e-008 0 -0.1
v -5.96046e-008 0.1 -0.1
v 0.0999999 0 -0.1
v 0.0999999 0.1 -0.1
v 0.2 0 -0.1
v 0.2 0.1 -0.1
v 0.3 0 -0.1
v 0.3 0.1 -0.1
v 0.4 0 -0.1
v 0.4 0.1 -0.1
v 0.5 0 -0.1
v 0.5 0.1 -0.1
v 0.6 0 -0.1
v 0.6 0.1 -0.1
v 0.7 0 -0.1
v 0.7 0.1 -0.1
v 0.8 0 -0.1
v 0.8 0.1 -0.1
v -5.96046e-008 0 -0.2
v -5.96046e-008 0.1 -0.2
v 0.0999999 0 -0.2
v 0.0999999 0.1 -0.2
v 0.2 0 -0.2
v 0.2 0.1 -0.2
v 0.3 0 -0.2
v 0.3 0.1 -0.2
v 0.4 0 -0.2
v 0.4 0.1 -0.2
v 0.5 0 -0.2
v 0.5 0.1 -0.2
v 0.6 0 -0.2
v 0.6 0.1 -0.2
v 0.7 0 -0.2
v 0.7 0.1 -0.2
v -5.96046e-008 0 0.3
v 0.0999999 0 0.3
v 0.2 0 0.3
v 0.3 0 0.3
v 0.4 0 0.3
v 0.5 0 0.3
v 0.6 0 0.3
v 0.7 0 0.3
v -0.5 0 0.2
v -0.4 0 0.2
v -0.1 0 0.2
v -5.96046e-008 0 0.2
v 0.0999999 0 0.2
v 0.2 0 0.2
v 0.3 0 0.2
v 0.4 0 0.2
v 0.5 0 0.2
v 0.6 0 0.2
v 0.7 0 0.2
v 0.8 0 0.2
v -0.4 0 0.1
v -0.1 0 0.1
v -5.96046e-008 0 0.1
v 0.0999999 0 0.1
v 0.2 0 0.1
v 0.3 0 0.1
v 0.4 0 0.1
v 0.5 0 0.1
v 0.6 0 0.1
v 0.7 0 0.1
v 0.8 0 0.1
v -0.4 0 2.98023e-008
v -0.1 0 2.98023e-008
v -5.96046e-008 0 2.98023e-008
v 0.0999999 0 2.98023e-008
v 0.2 0 2.98023e-008
v 0.3 0 2.98023e-008
v 0.4 0 2.98023e-008
v 0.5 0 2.98023e-008
v 0.6 0 2.98023e-008
v 0.7 0 2.98023e-008
v 0.8 0 2.98023e-008
v -0.5 0 -0.1
v -0.4 0 -0.1
v -0.1 0 -0.1
v -5.96046e-008 0 -0.1
v 0.0999999 0 -0.1
v 0.2 0 -0.1
v 0.3 0 -0.1
v 0.4 0 -0.1
v 0.5 0 -0.1
v 0.6 0 -0.1
v 0.7 0 -0.1
v 0.8 0 -0.1
v -5.96046e-008 0 -0.2
v 0.0999999 0 -0.2
v 0.2 0 -0.2
v 0.3 0 -0.2
v 0.4 0 -0.2
v 0.5 0 -0.2
v 0.6 0 -0.2
v 0.7 0 -0.2
v -5.96046e-008 0.1 0.3
v 0.0999999 0.1 0.3
v 0.2 0.1 0.3
v 0.3 0.1 0.3
v 0.4 0.1 0.3
v 0.5 0.1 0.3
v 0.6 0.1 0.3
v 0.7 0.1 0.3
v -0.5 0.1 0.2
v -0.4 0.1 0.2
v -0.1 0.1 0.2
v -5.96046e-008 0.1 0.2
v 0.0999999 0.1 0.2
v 0.2 0.1 0.2
v 0.3 0.1 0.2
v 0.4 0.1 0.2
v 0.5 0.1 0.2
v 0.6 0.1 0.2
v 0.7 0.1 0.2
v 0.8 0.1 0.2
v -0.4 0.1 0.1
v -0.1 0.1 0.1
v -5.96046e-008 0.1 0.1
v 0.0999999 0.1 0.1
v 0.2 0.1 0.1
v 0.3 0.1 0.1
v 0.4 0.1 0.1
v 0.5 0.1 0.1
v 0.6 0.1 0.1
v 0.7 0.1 0.1
v 0.8 0.1 0.1
v -0.4 0.1 2.98023e-008
v -0.1 0.1 2.98023e-008
v -5.96046e-008 0.1 2.98023e-008
v 0.0999999 0.1 2.98023e-008
v 0.2 0.1 2.98023e-008
v 0.3 0.1 2.98023e-008
v 0.4 0.1 2.98023e-008
v 0.5 0.1 2.98023e-008
v 0.6 0.1 2.98023e-008
v 0.7 0.1 2.98023e-008
v 0.8 0.1 2.98023e-008
v -0.5 0.1 -0.1
v -0.4 0.1 -0.1
v -0.1 0.1 -0.1
v -5.96046e-008 0.1 -0.1
v 0.0999999 0.1 -0.1
v 0.2 0.1 -0.1
v 0.3 0.1 -0.1
v 0.4 0.1 -0.1
v 0.5 0.1 -0.1
v 0.6 0.1 -0.1
v 0.7 0.1 -0.1
v 0.8 0.1 -0.1
v -5.96046e-008 0.1 -0.2
v 0.0999999 0.1 -0.2
v 0.2 0.1 -0.2
v 0.3 0.1 -0.2
v 0.4 0.1 -0.2
v 0.5 0.1 -0.2
v 0.6 0.1 -0.2
v 0.7 0.1 -0.2

# faces
f 3/1/1 2/1/1 1/1/1
f 4/1/1 2/1/1 3/1/1
f 9/1/1 6/1/1 5/1/1
f 10/1/1 6/1/1 9/1/1
f 11/1/1 8/1/1 7/1/1
f 12/1/1 8/1/1 11/1/1
f 17/5/1 14/5/1 13/5/1
f 18/5/1 14/5/1 17/5/1
f 19/5/1 16/5/1 15/5/1
f 20/5/1 16/5/1 19/5/1
f 25/5/1 22/5/1 21/5/1
f 26/5/1 22/5/1 25/5/1
f 27/5/1 24/5/1 23/5/1
f 28/5/1 24/5/1 27/5/1
f 33/5/1 30/5/1 29/5/1
f 34/5/1 30/5/1 33/5/1
f 35/5/1 32/5/1 31/5/1
f 36/5/1 32/5/1 35/5/1
f 41/5/1 38/5/1 37/5/1
f 42/5/1 38/5/1 41/5/1
f 43/5/1 40/5/1 39/5/1
f 44/5/1 40/5/1 43/5/1
f 45/1/2 46/1/2 49/1/2
f 49/1/2 46/1/2 50/1/2
f 47/1/2 48/1/2 51/1/2
f 51/1/2 48/1/2 52/1/2
f 53/5/2 54/5/2 57/5/2
f 57/5/2 54/5/2 58/5/2
f 55/5/2 56/5/2 59/5/2
f 59/5/2 56/5/2 60/5/2
f 61/5/2 62/5/2 65/5/2
f 65/5/2 62/5/2 66/5/2
f 63/5/2 64/5/2 67/5/2
f 67/5/2 64/5/2 68/5/2
f 69/5/2 70/5/2 73/5/2
f 73/5/2 70/5/2 74/5/2
f 71/5/2 72/5/2 75/5/2
f 75/5/2 72/5/2 76/5/2
f 77/5/2 78/5/2 81/5/2
f 81/5/2 78/5/2 82/5/2
f 79/5/2 80/5/2 83/5/2
f 83/5/2 80/5/2 84/5/2
f 85/5/2 86/5/2 89/5/2
f 86/1/2 87/1/2 90/1/2
f 89/5/2 86/5/2 90/5/2
f 87/5/2 88/5/2 91/5/2
f 90/1/2 87/1/2 91/1/2
f 91/5/2 88/5/2 92/5/2
f 95/5/3 94/5/3 93/5/3
f 96/5/3 94/5/3 95/5/3
f 99/5/3 98/5/3 97/5/3
f 100/5/3 98/5/3 99/5/3
f 103/5/3 102/5/3 101/5/3
f 104/5/3 102/5/3 103/5/3
f 107/5/3 106/5/3 105/5/3
f 108/5/3 106/5/3 107/5/3
f 111/1/3 110/1/3 109/1/3
f 112/1/3 110/1/3 111/1/3
f 115/1/3 114/1/3 113/1/3
f 116/1/3 114/1/3 115/1/3
f 119/1/3 118/1/3 117/1/3
f 120/1/3 118/1/3 119/1/3
f 123/1/3 122/1/3 121/1/3
f 124/1/3 122/1/3 123/1/3
f 127/1/3 126/1/3 125/1/3
f 128/1/3 126/1/3 127/1/3
f 131/5/3 130/5/3 129/5/3
f 132/5/3 130/5/3 131/5/3
f 135/1/3 134/1/3 133/1/3
f 136/1/3 134/1/3 135/1/3
f 137/1/4 138/1/4 139/1/4
f 139/1/4 138/1/4 140/1/4
f 141/1/4 142/1/4 143/1/4
f 143/1/4 142/1/4 144/1/4
f 145/1/4 146/1/4 147/1/4
f 147/1/4 146/1/4 148/1/4
f 149/1/4 150/1/4 151/1/4
f 151/1/4 150/1/4 152/1/4
f 153/1/4 154/1/4 155/1/4
f 155/1/4 154/1/4 156/1/4
f 157/1/4 158/1/4 159/1/4
f 159/1/4 158/1/4 160/1/4
f 161/5/4 162/5/4 163/5/4
f 163/5/4 162/5/4 164/5/4
f 165/5/4 166/5/4 167/5/4
f 167/5/4 166/5/4 168/5/4
f 169/5/4 170/5/4 171/5/4
f 171/5/4 170/5/4 172/5/4
f 173/5/4 174/5/4 175/5/4
f 175/5/4 174/5/4 176/5/4
f 177/5/4 178/5/4 179/5/4
f 179/5/4 178/5/4 180/5/4
f 192/5/5 182/5/5 181/5/5
f 193/5/5 182/5/5 192/5/5
f 194/5/5 184/5/5 183/5/5
f 195/5/5 184/5/5 194/5/5
f 196/5/5 186/5/5 185/5/5
f 197/5/5 186/5/5 196/5/5
f 198/5/5 188/5/5 187/5/5
f 199/5/5 188/5/5 198/5/5
f 201/1/5 190/1/5 189/1/5
f 202/1/5 193/1/5 192/1/5
f 202/1/5 195/1/5 194/1/5
f 202/1/5 199/1/5 198/1/5
f 202/1/5 198/1/5 197/1/5
f 202/1/5 197/1/5 196/1/5
f 202/1/5 196/1/5 195/1/5
f 202/1/5 192/1/5 191/1/5
f 202/1/5 194/1/5 193/1/5
f 203/1/5 199/1/5 202/1/5
f 204/1/5 199/1/5 203/1/5
f 205/1/5 199/1/5 204/1/5
f 206/1/5 199/1/5 205/1/5
f 207/1/5 199/1/5 206/1/5
f 208/1/5 199/1/5 207/1/5
f 209/1/5 199/1/5 208/1/5
f 210/5/5 200/5/5 199/5/5
f 210/1/5 199/1/5 209/1/5
f 211/5/5 200/5/5 210/5/5
f 212/1/5 201/1/5 189/1/5
f 212/1/5 202/1/5 201/1/5
f 213/3/5 203/3/5 202/3/5
f 213/1/5 202/1/5 212/1/5
f 214/2/5 204/2/5 203/2/5
f 214/3/5 203/3/5 213/3/5
f 215/3/5 205/3/5 204/3/5
f 215/2/5 204/2/5 214/2/5
f 216/2/5 206/2/5 205/2/5
f 216/3/5 205/3/5 215/3/5
f 217/4/5 207/4/5 206/4/5
f 217/2/5 206/2/5 216/2/5
f 218/2/5 208/2/5 207/2/5
f 218/4/5 207/4/5 217/4/5
f 219/3/5 209/3/5 208/3/5
f 219/2/5 208/2/5 218/2/5
f 220/2/5 210/2/5 209/2/5
f 220/3/5 209/3/5 219/3/5
f 221/1/5 211/1/5 210/1/5
f 221/2/5 210/2/5 220/2/5
f 222/1/5 211/1/5 221/1/5
f 223/1/5 212/1/5 189/1/5
f 224/1/5 212/1/5 223/1/5
f 225/1/5 218/1/5 217/1/5
f 225/1/5 220/1/5 219/1/5
f 225/1/5 214/1/5 213/1/5
f 225/1/5 221/1/5 220/1/5
f 225/1/5 219/1/5 218/1/5
f 225/1/5 217/1/5 216/1/5
f 225/1/5 216/1/5 215/1/5
f 225/1/5 215/1/5 214/1/5
f 226/1/5 221/1/5 225/1/5
f 227/1/5 221/1/5 226/1/5
f 228/1/5 221/1/5 227/1/5
f 229/1/5 221/1/5 228/1/5
f 230/1/5 221/1/5 229/1/5
f 231/1/5 221/1/5 230/1/5
f 232/1/5 221/1/5 231/1/5
f 233/5/5 222/5/5 221/5/5
f 233/1/5 221/1/5 232/1/5
f 234/5/5 222/5/5 233/5/5
f 235/5/5 227/5/5 226/5/5
f 236/5/5 227/5/5 235/5/5
f 237/5/5 229/5/5 228/5/5
f 238/5/5 229/5/5 237/5/5
f 239/5/5 231/5/5 230/5/5
f 240/5/5 231/5/5 239/5/5
f 241/5/5 233/5/5 232/5/5
f 242/5/5 233/5/5 241/5/5
f 243/5/6 244/5/6 254/5/6
f 254/5/6 244/5/6 255/5/6
f 245/5/6 246/5/6 256/5/6
f 256/5/6 246/5/6 257/5/6
f 247/5/6 248/5/6 258/5/6
f 258/5/6 248/5/6 259/5/6
f 249/5/6 250/5/6 260/5/6
f 260/5/6 250/5/6 261/5/6
f 251/1/6 252/1/6 263/1/6
f 254/1/6 255/1/6 264/1/6
f 256/1/6 257/1/6 264/1/6
f 260/1/6 261/1/6 264/1/6
f 259/1/6 260/1/6 264/1/6
f 258/1/6 259/1/6 264/1/6
f 257/1/6 258/1/6 264/1/6
f 253/1/6 254/1/6 264/1/6
f 255/1/6 256/1/6 264/1/6
f 264/1/6 261/1/6 265/1/6
f 265/1/6 261/1/6 266/1/6
f 266/1/6 261/1/6 267/1/6
f 267/1/6 261/1/6 268/1/6
f 268/1/6 261/1/6 269/1/6
f 269/1/6 261/1/6 270/1/6
f 270/1/6 261/1/6 271/1/6
f 261/5/6 262/5/6 272/5/6
f 271/1/6 261/1/6 272/1/6
f 272/5/6 262/5/6 273/5/6
f 251/1/6 263/1/6 274/1/6
f 263/1/6 264/1/6 274/1/6
f 264/3/6 265/3/6 275/3/6
f 274/1/6 264/1/6 275/1/6
f 265/2/6 266/2/6 276/2/6
f 275/3/6 265/3/6 276/3/6
f 266/3/6 267/3/6 277/3/6
f 276/2/6 266/2/6 277/2/6
f 267/2/6 268/2/6 278/2/6
f 277/3/6 267/3/6 278/3/6
f 268/4/6 269/4/6 279/4/6
f 278/2/6 268/2/6 279/2/6
f 269/2/6 270/2/6 280/2/6
f 279/4/6 269/4/6 280/4/6
f 270/3/6 271/3/6 281/3/6
f 280/2/6 270/2/6 281/2/6
f 271/2/6 272/2/6 282/2/6
f 281/3/6 271/3/6 282/3/6
f 272/1/6 273/1/6 283/1/6
f 282/2/6 272/2/6 283/2/6
f 283/1/6 273/1/6 284/1/6
f 251/1/6 274/1/6 285/1/6
f 285/1/6 274/1/6 286/1/6
f 279/1/6 280/1/6 287/1/6
f 281/1/6 282/1/6 287/1/6
f 275/1/6 276/1/6 287/1/6
f 282/1/6 283/1/6 287/1/6
f 280/1/6 281/1/6 287/1/6
f 278/1/6 279/1/6 287/1/6
f 277/1/6 278/1/6 287/1/6
f 276/1/6 277/1/6 287/1/6
f 287/1/6 283/1/6 288/1/6
f 288/1/6 283/1/6 289/1/6
f 289/1/6 283/1/6 290/1/6
f 290/1/6 283/1/6 291/1/6
f 291/1/6 283/1/6 292/1/6
f 292/1/6 283/1/6 293/1/6
f 293/1/6 283/1/6 294/1/6
f 283/5/6 284/5/6 295/5/6
f 294/1/6 283/1/6 295/1/6
f 295/5/6 284/5/6 296/5/6
f 288/5/6 289/5/6 297/5/6
f 297/5/6 289/5/6 298/5/6
f 290/5/6 291/5/6 299/5/6
f 299/5/6 291/5/6 300/5/6
f 292/5/6 293/5/6 301/5/6
f 301/5/6 293/5/6 302/5/6
f 294/5/6 295/5/6 303/5/6
f 303/5/6 295/5/6 304/5/6
